<svg width="24" height="19" viewBox="0 0 24 19" fill="none" xmlns="http://www.w3.org/2000/svg">
<path d="M10.5938 14.4062C11 14.8125 11.4688 15.0156 12 15.0156C12.5312 15.0156 13 14.8125 13.4062 14.4062C13.8125 14 14.0156 13.5312 14.0156 13C14.0156 12.4688 13.8125 12 13.4062 11.5938C13 11.1875 12.5312 10.9844 12 10.9844C11.4688 10.9844 11 11.1875 10.5938 11.5938C10.1875 12 9.98438 12.4688 9.98438 13C9.98438 13.5312 10.1875 14 10.5938 14.4062ZM9 7H15L12 2.59375L9 7ZM17.2031 7H21.9844C22.2656 7 22.5 7.09375 22.6875 7.28125C22.9062 7.46875 23.0156 7.70312 23.0156 7.98438C22.7031 9.23438 22.2344 11 21.6094 13.2812C20.9844 15.5312 20.5938 16.9531 20.4375 17.5469C20.1562 18.5156 19.5156 19 18.5156 19H5.48438C4.48438 19 3.84375 18.5156 3.5625 17.5469L1.03125 8.26562C1 8.20312 0.984375 8.10938 0.984375 7.98438C0.984375 7.70312 1.07812 7.46875 1.26562 7.28125C1.48438 7.09375 1.73438 7 2.01562 7H6.79688L11.1562 0.4375C11.3438 0.15625 11.625 0.015625 12 0.015625C12.4062 0.015625 12.6875 0.15625 12.8438 0.4375L17.2031 7Z" />
</svg>
