<svg width="11" height="18" viewBox="0 0 11 18" fill="none" xmlns="http://www.w3.org/2000/svg">
<path d="M6.3125 7.92188C7 8.10938 7.5625 8.29688 8 8.48438C8.46875 8.67188 8.95312 8.9375 9.45312 9.28125C9.95312 9.59375 10.3281 10 10.5781 10.5C10.8594 11 11 11.5938 11 12.2812C11 13.25 10.6719 14.0469 10.0156 14.6719C9.39062 15.2656 8.54688 15.6562 7.48438 15.8438V18H4.48438V15.8438C3.45312 15.625 2.59375 15.1875 1.90625 14.5312C1.25 13.875 0.890625 13.0312 0.828125 12H3.03125C3.15625 13.4062 4.14062 14.1094 5.98438 14.1094C6.95312 14.1094 7.64062 13.9375 8.04688 13.5938C8.48438 13.2188 8.70312 12.7969 8.70312 12.3281C8.70312 11.2031 7.70312 10.3906 5.70312 9.89062C2.57812 9.17188 1.01562 7.79688 1.01562 5.76562C1.01562 4.85938 1.34375 4.09375 2 3.46875C2.65625 2.8125 3.48438 2.375 4.48438 2.15625V0H7.48438V2.20312C8.51562 2.45312 9.29688 2.92188 9.82812 3.60938C10.3906 4.29688 10.6875 5.09375 10.7188 6H8.51562C8.45312 4.59375 7.60938 3.89062 5.98438 3.89062C5.17188 3.89062 4.51562 4.0625 4.01562 4.40625C3.54688 4.75 3.3125 5.20312 3.3125 5.76562C3.3125 6.67188 4.3125 7.39062 6.3125 7.92188Z" />
</svg>
