<svg width="20" height="20" viewBox="0 0 20 20" fill="none" xmlns="http://www.w3.org/2000/svg">
<path d="M11.4062 16.0938C13.5 15.6875 14.5469 14.6406 14.5469 12.9531C14.5469 11.0469 13.1406 9.73438 10.3281 9.01562C8.57812 8.57812 7.70312 7.9375 7.70312 7.09375C7.70312 6.625 7.90625 6.23438 8.3125 5.92188C8.75 5.60938 9.34375 5.45312 10.0938 5.45312C11.5 5.45312 12.2344 6.07812 12.2969 7.32812H14.2656C14.2031 5.54688 13.25 4.42188 11.4062 3.95312V1.98438H8.73438V3.95312C7.82812 4.14062 7.07812 4.51562 6.48438 5.07812C5.92188 5.60938 5.64062 6.29688 5.64062 7.14062C5.64062 8.89062 7.03125 10.1094 9.8125 10.7969C11.5938 11.2031 12.4844 11.9219 12.4844 12.9531C12.4844 13.3594 12.2969 13.7344 11.9219 14.0781C11.5781 14.3906 10.9688 14.5469 10.0938 14.5469C8.4375 14.5469 7.54688 13.9219 7.42188 12.6719H5.45312C5.54688 14.4531 6.64062 15.5781 8.73438 16.0469V18.0156H11.4062V16.0938ZM2.92188 2.96875C4.89062 1 7.25 0.015625 10 0.015625C12.75 0.015625 15.0938 1 17.0312 2.96875C19 4.90625 19.9844 7.25 19.9844 10C19.9844 12.75 19 15.1094 17.0312 17.0781C15.0938 19.0156 12.75 19.9844 10 19.9844C7.25 19.9844 4.89062 19.0156 2.92188 17.0781C0.984375 15.1094 0.015625 12.75 0.015625 10C0.015625 7.25 0.984375 4.90625 2.92188 2.96875Z" fill="#00843F"/>
</svg>
