<svg width="121" height="102" viewBox="0 0 121 102" fill="none" xmlns="http://www.w3.org/2000/svg">
<path d="M22.0446 79.7304L31.6825 101.017H36.3354L37.0031 99.3918L37.828 101.017H40.8811L40.5276 88.5898L40.3776 81.248L22.0446 79.7304Z" fill="#FF9769"/>
<path opacity="0.3" d="M22.0446 79.7304L31.6825 101.017H36.3354L37.0031 99.3918L37.828 101.017H40.8811L40.5276 88.5898L40.3776 81.248L22.0446 79.7304Z" fill="#1A1A1A"/>
<path d="M64.235 82.0123L73.6372 101.017H78.2901L78.9543 99.5276L79.7828 101.017H82.8359L82.4788 89.6398L82.3288 82.9193L64.235 82.0123Z" fill="#FF9769"/>
<path opacity="0.3" d="M64.235 82.0123L73.6372 101.017H78.2901L78.9543 99.5276L79.7828 101.017H82.8359L82.4788 89.6398L82.3288 82.9193L64.235 82.0123Z" fill="#1A1A1A"/>
<path d="M117.709 25.9988L117.795 26.0309L118.045 26.1381C118.359 26.2955 118.653 26.491 118.92 26.7201C119.347 27.0847 119.71 27.5194 119.991 28.0057C120.361 28.6489 120.579 29.3684 120.627 30.1089C120.681 31.0152 120.453 31.916 119.973 32.6871C119.425 33.5735 118.614 34.2665 117.652 34.669C117.126 34.903 116.556 35.0239 115.979 35.0239C115.403 35.0239 114.833 34.903 114.306 34.669C113.741 34.4045 113.298 33.9346 113.067 33.3549C112.939 33.0586 112.888 32.7348 112.918 32.4135C112.948 32.0921 113.058 31.7834 113.239 31.5159C113.432 31.2598 113.678 31.0491 113.962 30.8985C114.245 30.748 114.557 30.6613 114.878 30.6446C115.5 30.6172 116.111 30.8178 116.595 31.2088C117.045 31.5723 117.403 32.0356 117.643 32.5618C117.882 33.088 117.995 33.6628 117.974 34.2405C117.938 35.2842 117.562 36.2876 116.902 37.0972C116.609 37.4642 116.256 37.7802 115.86 38.0328C115.493 38.2603 115.098 38.4392 114.685 38.5649C113.973 38.7706 113.227 38.8266 112.492 38.7291C111.94 38.6586 111.4 38.5095 110.889 38.2863C110.567 38.1483 110.259 37.9784 109.971 37.7793L109.753 37.615C109.727 37.5969 109.703 37.5753 109.682 37.5507C110.071 37.8127 110.485 38.0364 110.918 38.2185C111.425 38.4272 111.958 38.5642 112.503 38.6256C113.222 38.7092 113.951 38.646 114.646 38.4399C115.045 38.312 115.426 38.1345 115.781 37.9114C116.161 37.6633 116.498 37.3545 116.777 36.9972C117.407 36.2111 117.762 35.2403 117.788 34.2333C117.805 33.684 117.695 33.1382 117.466 32.6383C117.238 32.1385 116.897 31.6981 116.47 31.3516C116.019 30.9893 115.452 30.8016 114.874 30.8231C114.581 30.8391 114.296 30.9186 114.037 31.0561C113.778 31.1936 113.552 31.3858 113.374 31.6194C113.213 31.8623 113.114 32.1418 113.088 32.4324C113.062 32.723 113.109 33.0156 113.224 33.2835C113.438 33.822 113.85 34.2587 114.374 34.5047C114.88 34.7293 115.428 34.8454 115.981 34.8454C116.535 34.8454 117.082 34.7293 117.588 34.5047C118.518 34.1192 119.306 33.4541 119.841 32.6014C120.314 31.8564 120.542 30.9827 120.495 30.1018C120.455 29.3786 120.251 28.674 119.898 28.0414C119.634 27.5624 119.293 27.1304 118.888 26.763C118.53 26.4578 118.134 26.2009 117.709 25.9988Z" fill="#FF9769"/>
<path d="M113.106 45.2568C114.506 76.8416 88.0279 92.6036 58.0536 92.6036C28.0793 92.6036 3.77563 72.0815 3.77563 46.7673C3.77563 21.4531 28.0579 0.930984 58.0536 0.930984C88.0493 0.930984 111.985 19.9675 113.106 45.2568Z" fill="#FF9769"/>
<path opacity="0.3" d="M54.2721 12.2508C54.2721 12.2508 57.8823 11.0974 61.2389 14.9111C64.5956 18.7249 69.3092 25.2061 69.3092 25.2061C68.8879 27.3165 67.6559 28.9591 65.2669 29.9375L54.2721 12.2508Z" fill="#1A1A1A"/>
<path d="M22.3659 79.6054C32.629 79.6054 40.9489 73.2296 40.9489 65.3646C40.9489 57.4996 32.629 51.1238 22.3659 51.1238C12.1028 51.1238 3.78284 57.4996 3.78284 65.3646C3.78284 73.2296 12.1028 79.6054 22.3659 79.6054Z" fill="#FF9769"/>
<path d="M39.6991 27.2914C39.6991 27.2914 50.5904 10.3938 55.579 12.2293C60.5675 14.0647 65.249 29.9375 65.249 29.9375" fill="#FF9769"/>
<path d="M27.3829 23.4206L26.8722 18.8427C26.8722 18.8427 20.0554 15.986 13.9455 14.5969C7.83569 13.2078 6.63586 14.5969 6.63586 14.5969L16.2988 28.1342L27.3829 23.4206Z" fill="#FF9769"/>
<path opacity="0.3" d="M41.9202 7.21234L45.5339 9.35489C45.5339 9.35489 63.0314 4.7127 76.4795 9.35489L71.5481 5.15906C71.5481 5.15906 55.2468 1.65957 41.9202 7.21234Z" fill="#1A1A1A"/>
<path opacity="0.3" d="M22.3659 79.6054C32.629 79.6054 40.9489 73.2296 40.9489 65.3646C40.9489 57.4996 32.629 51.1238 22.3659 51.1238C12.1028 51.1238 3.78284 57.4996 3.78284 65.3646C3.78284 73.2296 12.1028 79.6054 22.3659 79.6054Z" fill="#1A1A1A"/>
<path d="M17.6452 79.6054C27.2595 79.6054 35.0534 73.2296 35.0534 65.3646C35.0534 57.4996 27.2595 51.1238 17.6452 51.1238C8.03086 51.1238 0.236938 57.4996 0.236938 65.3646C0.236938 73.2296 8.03086 79.6054 17.6452 79.6054Z" fill="#FF9769"/>
<path opacity="0.3" d="M11.6281 58.6834H10.289C9.6303 58.6834 9.09631 59.2174 9.09631 59.8761V70.8531C9.09631 71.5118 9.6303 72.0457 10.289 72.0457H11.6281C12.2868 72.0457 12.8208 71.5118 12.8208 70.8531V59.8761C12.8208 59.2174 12.2868 58.6834 11.6281 58.6834Z" fill="#1A1A1A"/>
<path opacity="0.3" d="M21.6304 58.6834H20.2913C19.6326 58.6834 19.0986 59.2174 19.0986 59.8761V70.8531C19.0986 71.5118 19.6326 72.0457 20.2913 72.0457H21.6304C22.2891 72.0457 22.8231 71.5118 22.8231 70.8531V59.8761C22.8231 59.2174 22.2891 58.6834 21.6304 58.6834Z" fill="#1A1A1A"/>
<path opacity="0.3" d="M26.3259 23.867C27.8935 22.985 28.7327 21.6638 28.1435 19.4819C28.1435 19.4819 20.0554 15.9931 13.9455 14.5969C7.83569 13.2007 6.63586 14.5969 6.63586 14.5969L16.2988 28.1343L26.3259 23.867Z" fill="#1A1A1A"/>
<path d="M26.8723 24.2384L25.6547 23.4206C22.0516 21.0138 11.5245 14.1363 8.87135 14.0613C5.20758 13.9541 5.20044 17.1144 5.20759 19.5569C5.20759 21.2888 6.63595 36.3402 6.63595 36.3402" fill="#FF9769"/>
<path d="M65.249 29.9375C65.249 29.9375 65.2311 29.9054 65.2061 29.834C65.1811 29.7626 65.1454 29.6519 65.1026 29.5233L64.7026 28.3271C64.3455 27.2915 63.8242 25.7953 63.11 23.9741C62.2847 21.8377 61.3307 19.7532 60.2533 17.7321C59.6221 16.5393 58.8822 15.4073 58.0429 14.3505C57.6042 13.7934 57.0967 13.2943 56.5324 12.865C55.9778 12.4005 55.2697 12.1598 54.5469 12.1901C53.8243 12.2809 53.1293 12.5243 52.508 12.9043C51.892 13.2601 51.3057 13.6649 50.7546 14.1148C49.7116 14.9727 48.7274 15.8996 47.8086 16.8894C46.2537 18.574 44.7842 20.3354 43.4057 22.1672C42.2201 23.7206 41.3024 25.024 40.6739 25.9095L39.9597 26.9451L39.7705 27.2165C39.7276 27.2736 39.7062 27.3058 39.7026 27.3022C39.7157 27.2676 39.7338 27.2352 39.7562 27.2058L39.9276 26.9237C40.0812 26.6809 40.3133 26.3238 40.6204 25.8703C41.2274 24.9597 42.1309 23.6563 43.3057 22.0851C44.6753 20.2422 46.1389 18.471 47.6908 16.7787C48.612 15.7798 49.5999 14.8445 50.6475 13.9791C51.2079 13.5213 51.8051 13.1105 52.433 12.7507C53.0786 12.3646 53.7994 12.1211 54.5469 12.0365C54.9314 11.9968 55.3198 12.0507 55.6789 12.1937C56.0241 12.3385 56.3512 12.5231 56.6538 12.7436C57.2322 13.1811 57.7508 13.6925 58.1964 14.2648C59.042 15.3307 59.7857 16.4736 60.4175 17.6786C61.4892 19.6998 62.4314 21.787 63.2386 23.9277C63.9527 25.7596 64.4455 27.2629 64.7776 28.3056C64.9419 28.827 65.0669 29.2341 65.1347 29.5126L65.2204 29.8304C65.2354 29.8644 65.2451 29.9006 65.249 29.9375Z" fill="#3A3A3A"/>
<path d="M71.5483 5.16254C71.5807 5.1799 71.6108 5.20151 71.6375 5.22681L71.8875 5.42678L72.8374 6.2231L76.3083 9.16553L76.5368 9.36193L76.244 9.2798C74.1456 8.68718 72.0135 8.22093 69.8592 7.88357C67.2262 7.47679 64.5674 7.25959 61.9032 7.23366C56.4188 7.17565 50.9548 7.91052 45.6805 9.41549H45.6555H45.6341L42.8845 7.80501L42.1703 7.37294L41.9846 7.25509C41.9454 7.2301 41.9239 7.21581 41.9275 7.21224L41.9954 7.24438L42.1846 7.34437L42.9238 7.75145L45.6984 9.31908H45.6555C47.9288 8.64776 50.2427 8.12295 52.5831 7.74788C53.9686 7.51934 55.4613 7.35151 57.0218 7.21581C58.5823 7.08012 60.2356 7.03012 61.9139 7.06226C64.5858 7.087 67.2522 7.309 69.8914 7.72645C72.0517 8.0709 74.1887 8.54792 76.2904 9.15482L76.2297 9.26909L72.7981 6.28023L71.8696 5.45892C71.7697 5.36965 71.6947 5.29823 71.6304 5.24467C71.6008 5.21964 71.5733 5.19216 71.5483 5.16254Z" fill="#3A3A3A"/>
<path d="M28.0294 53.9484C27.992 53.9335 27.9571 53.9131 27.9258 53.8877L27.6366 53.6985L27.1723 53.3842C26.9831 53.27 26.7546 53.1485 26.5046 53.0057C25.0624 52.2486 23.5104 51.722 21.9052 51.4452C20.798 51.2583 19.6784 51.1545 18.5557 51.1346C17.2671 51.125 15.9798 51.2193 14.7063 51.4167C11.7769 51.8464 8.98268 52.9329 6.53245 54.5948C5.90525 55.0424 5.30876 55.5315 4.74699 56.0589C4.20252 56.5762 3.69761 57.1336 3.23649 57.7265C2.36457 58.85 1.66197 60.0952 1.15108 61.4224C0.333973 63.7011 0.17556 66.1639 0.694002 68.5285C0.906086 69.4294 1.22121 70.3029 1.63315 71.1317C1.95716 71.7505 2.33855 72.3375 2.77227 72.885L3.26506 73.4706L3.665 73.8634L3.9114 74.1098C3.93916 74.1369 3.96538 74.1655 3.98996 74.1955C3.98996 74.1955 3.95782 74.1741 3.89711 74.1241L3.64001 73.892L3.22578 73.5099C3.0758 73.3385 2.90797 73.1528 2.71514 72.9314C2.26742 72.3866 1.87394 71.7994 1.54031 71.1781C1.11247 70.3462 0.785215 69.4663 0.565448 68.5571C0.0227052 66.168 0.170071 63.6738 0.990383 61.3652C1.23715 60.7047 1.53565 60.0647 1.88311 59.4512C2.23841 58.8089 2.64315 58.1953 3.09366 57.6158C3.55964 57.0138 4.07056 56.448 4.62201 55.9232C5.19291 55.3874 5.80153 54.8934 6.44317 54.4448C8.91547 52.7606 11.7388 51.6615 14.6991 51.231C15.9823 51.0361 17.2793 50.9466 18.5771 50.9632C19.7077 50.9919 20.8345 51.1053 21.9481 51.3024C23.5628 51.5921 25.1197 52.1421 26.5581 52.9307C26.8081 53.0771 27.0331 53.2021 27.2188 53.3235L27.6758 53.6521L27.9544 53.8592C27.9827 53.886 28.0078 53.916 28.0294 53.9484Z" fill="#3A3A3A"/>
<path d="M12.7138 59.9333C12.7432 60.1222 12.7563 60.3134 12.753 60.5046C12.753 60.901 12.7923 61.4259 12.8209 62.0544C12.8745 63.3649 12.9816 65.1718 13.0316 67.1751C13.0316 67.675 13.0316 68.1642 13.0316 68.6356C13.0395 69.0949 13.0048 69.5539 12.928 70.0068C12.8777 70.4008 12.7376 70.778 12.5184 71.1092C12.2993 71.4405 12.0069 71.7169 11.6639 71.9173C11.4235 72.038 11.1557 72.094 10.8871 72.0796C10.6184 72.0652 10.3581 71.9809 10.132 71.8351C10.0108 71.755 9.90642 71.6519 9.82489 71.5316C9.79563 71.4918 9.77385 71.4471 9.76062 71.3995C9.87489 71.5472 10.0138 71.674 10.1713 71.7744C10.3882 71.898 10.6327 71.965 10.8823 71.9694C11.1319 71.9738 11.3785 71.9153 11.5996 71.7994C11.916 71.6008 12.1839 71.3338 12.3835 71.018C12.5831 70.7022 12.7094 70.3457 12.753 69.9747C12.8219 69.5318 12.8518 69.0837 12.8423 68.6356C12.8423 68.1642 12.8423 67.6786 12.8245 67.1786C12.7745 65.1789 12.6888 63.3685 12.6673 62.058C12.6673 61.4009 12.6673 60.8724 12.6673 60.5046C12.667 60.3132 12.6826 60.1221 12.7138 59.9333Z" fill="#3A3A3A"/>
<path d="M22.5838 59.9333C22.6158 60.122 22.6302 60.3132 22.6266 60.5046C22.6266 60.901 22.6659 61.4259 22.6909 62.0544C22.748 63.3649 22.8516 65.1718 22.9016 67.1751C22.9016 67.675 22.9016 68.1642 22.9016 68.6356C22.9088 69.0947 22.8754 69.5536 22.8016 70.0068C22.7508 70.4007 22.6104 70.7776 22.3913 71.1088C22.1722 71.4399 21.8801 71.7165 21.5375 71.9173C21.2964 72.038 21.0281 72.0939 20.7589 72.0795C20.4896 72.0651 20.2288 71.9809 20.002 71.8351C19.8814 71.7555 19.7781 71.6522 19.6985 71.5316C19.6674 71.4924 19.6444 71.4475 19.6306 71.3995C19.7461 71.546 19.8848 71.6727 20.0413 71.7744C20.2582 71.898 20.5027 71.965 20.7523 71.9694C21.0019 71.9738 21.2485 71.9153 21.4696 71.7994C21.7872 71.6022 22.056 71.3355 22.2558 71.0194C22.4556 70.7034 22.5811 70.3462 22.623 69.9747C22.6937 69.532 22.7235 69.0837 22.7123 68.6356C22.7123 68.1642 22.7123 67.6786 22.6945 67.1786C22.6445 65.1789 22.5588 63.3685 22.5373 62.058C22.5373 61.4009 22.5373 60.8724 22.5373 60.5046C22.537 60.3132 22.5526 60.1221 22.5838 59.9333Z" fill="#3A3A3A"/>
<path d="M34.8427 68.4642C34.8282 68.5492 34.803 68.632 34.7677 68.7106C34.707 68.8677 34.6391 69.107 34.5034 69.3998C34.1485 70.2332 33.7106 71.0287 33.1965 71.7745C32.4386 72.8859 31.5516 73.9036 30.554 74.8062C29.9624 75.3354 29.34 75.829 28.69 76.2845C27.9862 76.7678 27.25 77.2021 26.4867 77.5844C25.0162 78.337 23.4564 78.901 21.8445 79.2627C20.5331 79.538 19.1958 79.6709 17.8558 79.6591C16.7095 79.6591 15.7883 79.5912 15.1491 79.5448L14.417 79.4876C14.3304 79.4838 14.2443 79.4719 14.1599 79.4519C14.2455 79.4458 14.3314 79.4458 14.417 79.4519L15.1526 79.4769C15.7918 79.4984 16.7167 79.5412 17.8558 79.5305C19.1886 79.5237 20.5171 79.3777 21.8195 79.0949C23.4111 78.7261 24.9511 78.1624 26.4046 77.4165C27.1591 77.0373 27.8879 76.609 28.5864 76.1346C29.2308 75.6853 29.8484 75.1988 30.4362 74.6776C31.4309 73.7903 32.321 72.7923 33.0893 71.7031C33.6085 70.9686 34.0592 70.1881 34.4356 69.3712C34.582 69.0856 34.6606 68.8499 34.732 68.6963C34.7641 68.6168 34.801 68.5392 34.8427 68.4642Z" fill="#3A3A3A"/>
<path d="M12.4994 59.5369C12.4255 59.4123 12.3432 59.293 12.253 59.1798C12.1217 59.0392 11.9638 58.9261 11.7885 58.8471C11.6132 58.768 11.424 58.7245 11.2317 58.7191C10.9471 58.7167 10.6653 58.7754 10.4054 58.8912C10.1454 59.007 9.91331 59.1772 9.72479 59.3904C9.50292 59.6415 9.34598 59.9431 9.26771 60.2689C9.19056 60.6278 9.15581 60.9946 9.16415 61.3616C9.16415 62.8971 9.18201 64.2897 9.16415 65.2896C9.16415 65.7645 9.16415 66.1609 9.16415 66.4823C9.17139 66.6295 9.16059 66.777 9.13201 66.9215C9.10503 66.7767 9.09188 66.6296 9.09273 66.4823C9.09273 66.1645 9.06774 65.7681 9.04988 65.2896C9.02489 64.2826 8.99632 62.8935 8.98561 61.3616C8.97633 60.9786 9.01471 60.596 9.09987 60.2225C9.1848 59.8687 9.35944 59.5428 9.60694 59.2762C9.81247 59.0476 10.066 58.8673 10.3493 58.7481C10.6327 58.629 10.9389 58.574 11.246 58.587C11.4528 58.5981 11.655 58.6525 11.8395 58.7466C12.0241 58.8407 12.1868 58.9725 12.3173 59.1333C12.3845 59.2221 12.4397 59.3194 12.4815 59.4226C12.4958 59.4976 12.5065 59.5333 12.4994 59.5369Z" fill="white"/>
<path d="M19.0413 60.3761C19.0913 60.3761 19.1342 62.2579 19.1342 64.579C19.1342 66.9001 19.0913 68.782 19.0413 68.782C18.9913 68.782 18.9485 66.9001 18.9485 64.579C18.9485 62.2579 18.9878 60.3761 19.0413 60.3761Z" fill="white"/>
<path d="M16.0453 52.2558C15.9717 52.2641 15.8975 52.2641 15.8239 52.2558C15.6811 52.2558 15.4668 52.2558 15.1954 52.2558C14.4274 52.2811 13.6623 52.3635 12.9065 52.5022C10.0246 53.0388 7.35972 54.3983 5.23374 56.4165C3.10776 58.4348 1.61162 61.0255 0.926056 63.8756C0.854638 64.1398 0.818931 64.3469 0.783221 64.4862C0.770069 64.5591 0.750959 64.6307 0.726085 64.7004C0.723538 64.626 0.730741 64.5516 0.74751 64.4791C0.772506 64.3398 0.793933 64.122 0.854639 63.8613C1.00811 63.1023 1.22675 62.358 1.50812 61.6366C2.43105 59.2361 3.96785 57.1198 5.96495 55.4993C7.96204 53.8788 10.3495 52.8109 12.8886 52.4022C13.6521 52.2745 14.4249 52.21 15.199 52.2094C15.474 52.2094 15.6847 52.2272 15.8275 52.2308C15.9008 52.231 15.9739 52.2393 16.0453 52.2558Z" fill="white"/>
<path d="M6.70746 34.062C6.69439 34.1322 6.6728 34.2005 6.64318 34.2655C6.58605 34.4155 6.51106 34.6012 6.42179 34.8297C6.33251 35.0583 6.20396 35.3725 6.06469 35.726C5.92543 36.0796 5.78616 36.4759 5.6469 36.9259C5.50763 37.3758 5.34337 37.865 5.20053 38.3971C5.0577 38.9291 4.91129 39.5041 4.76488 40.1075C4.47313 41.4241 4.25378 42.7557 4.10783 44.0963C3.97573 45.4383 3.91613 46.7865 3.92929 48.135C3.94714 48.7563 3.95785 49.3455 4.00427 49.899C4.0507 50.4525 4.08641 50.9703 4.1364 51.4309C4.18639 51.8916 4.25067 52.3165 4.30066 52.6879C4.35065 53.0593 4.40065 53.3771 4.45064 53.6378C4.50063 53.8984 4.52206 54.077 4.55062 54.2341C4.5649 54.3034 4.57208 54.374 4.57205 54.4448C4.54179 54.3803 4.52132 54.3117 4.51134 54.2412C4.4792 54.0877 4.43278 53.8841 4.37922 53.6485C4.32566 53.4128 4.25424 53.0771 4.19711 52.7057C4.13997 52.3344 4.05784 51.9166 4.00785 51.4452C3.95786 50.9738 3.88644 50.4632 3.85073 49.9097C3.81502 49.3562 3.78288 48.7599 3.75788 48.1243C3.73431 46.7677 3.78915 45.4108 3.92214 44.0605C4.06881 42.713 4.29416 41.3752 4.59705 40.054C4.7506 39.4505 4.88629 38.872 5.05412 38.3399C5.22196 37.8079 5.36836 37.3151 5.52191 36.8687C5.67546 36.4224 5.83258 36.026 5.96828 35.676C6.10397 35.3261 6.22895 35.0297 6.32537 34.7905L6.57891 34.237C6.61572 34.1744 6.65879 34.1158 6.70746 34.062Z" fill="white"/>
<path d="M7.23939 15.4932C7.23939 15.4932 7.09298 15.6861 6.8823 16.061C6.5929 16.5967 6.39155 17.1754 6.28595 17.775C6.1385 18.6685 6.06564 19.5727 6.06813 20.4782C6.03956 21.5031 6.03242 22.6208 6.06813 23.817C6.12526 26.181 6.3181 28.32 6.49664 29.8626C6.58949 30.6089 6.66805 31.2267 6.72518 31.6838C6.75018 31.8837 6.7716 32.0409 6.78946 32.1801C6.798 32.2393 6.798 32.2995 6.78946 32.3587C6.76608 32.304 6.75045 32.2463 6.74303 32.1873C6.71803 32.0551 6.6859 31.8909 6.64662 31.698C6.56806 31.2695 6.4645 30.6482 6.35738 29.8769C6.08581 27.8637 5.92488 25.8371 5.8753 23.8063C5.84673 22.6172 5.8753 21.4888 5.89673 20.4604C5.90332 19.5463 5.99055 18.6345 6.1574 17.7358C6.27519 17.1312 6.49883 16.5521 6.81802 16.0253C6.90641 15.8814 7.00675 15.7453 7.11798 15.6182C7.1532 15.5717 7.19397 15.5298 7.23939 15.4932Z" fill="white"/>
<path d="M41.9987 4.31265C41.928 4.35301 41.8524 4.38421 41.7738 4.40549L41.1096 4.64118L38.6599 5.48034C35.9692 6.3826 33.3267 7.42312 30.7432 8.59775C28.1586 9.78249 25.719 11.2611 23.4728 13.0043C22.6194 13.6827 21.9588 14.2719 21.5195 14.6933C21.291 14.9004 21.1303 15.0718 21.0089 15.179C20.953 15.2388 20.8921 15.2938 20.8268 15.3432C20.8268 15.3432 20.8768 15.2718 20.9839 15.154C21.091 15.0361 21.2481 14.8576 21.466 14.6433C22.0755 14.028 22.7181 13.4463 23.3907 12.9007C25.6238 11.1191 28.0666 9.6177 30.6647 8.42992C33.2588 7.24857 35.9202 6.22076 38.6349 5.35179C39.6741 4.9947 40.5204 4.7483 41.1025 4.56976L41.7774 4.36621C41.8494 4.34166 41.9235 4.32373 41.9987 4.31265Z" fill="white"/>
<path d="M54.4291 13.1614C54.3791 13.2075 54.3254 13.2494 54.2684 13.2864L53.7934 13.622C53.3756 13.9077 52.7829 14.3362 52.0651 14.879C51.3474 15.4218 50.5082 16.0967 49.6048 16.8751C48.7013 17.6536 47.755 18.5606 46.798 19.5498C45.841 20.5389 44.984 21.5316 44.2305 22.4565C43.4771 23.3814 42.8414 24.2419 42.3272 24.9883C41.813 25.7346 41.4059 26.3345 41.1345 26.7737L40.8167 27.2594C40.7849 27.32 40.744 27.3754 40.6953 27.4236C40.7207 27.3609 40.7505 27.3 40.7846 27.2415C40.8631 27.1094 40.956 26.9416 41.0738 26.7344C41.3238 26.2952 41.713 25.6632 42.2165 24.924C42.72 24.1848 43.3556 23.2992 44.0984 22.3601C44.8411 21.4209 45.7053 20.4282 46.6623 19.4319C47.6193 18.4356 48.5906 17.5429 49.4941 16.7573C50.3975 15.9717 51.2509 15.3289 51.9937 14.7826C52.7364 14.2362 53.3292 13.8399 53.7613 13.5756L54.2541 13.2685C54.306 13.2233 54.3651 13.187 54.4291 13.1614Z" fill="white"/>
<path d="M109.464 38.0043C109.638 38.2873 109.78 38.5892 109.885 38.9041C110.18 39.6495 110.427 40.4128 110.625 41.1895C110.82 41.9663 110.967 42.7547 111.064 43.5499C111.122 43.8786 111.141 44.213 111.121 44.5462C111.037 44.2258 110.975 43.9001 110.935 43.5713C110.832 42.9678 110.671 42.143 110.443 41.2359C110.214 40.3289 109.96 39.5291 109.764 38.9506C109.641 38.6429 109.541 38.3266 109.464 38.0043Z" fill="white"/>
<path d="M100.919 78.9448L100.744 79.077L100.219 79.434L99.3619 80.0375L98.812 80.4196L98.1728 80.8338C95.635 82.5145 92.9918 84.0305 90.2597 85.3725C89.392 85.7974 88.4742 86.2152 87.5172 86.6509L86.0389 87.2794L85.2747 87.6007L84.4891 87.9043L82.8786 88.5149L81.1931 89.0969C80.6253 89.3005 80.0397 89.479 79.4469 89.6576C78.8542 89.8361 78.2578 90.0397 77.6401 90.1968C75.0752 90.9215 72.4729 91.5068 69.8447 91.9501C67.0247 92.4464 64.1748 92.7541 61.3138 92.8714C58.4544 92.999 55.5895 92.9094 52.7436 92.6036L51.7152 92.5036C51.3581 92.4679 51.0367 92.4108 50.6975 92.3679L48.6978 92.0822L46.7516 91.7251L45.7946 91.5466L44.859 91.3323C40.4473 90.3629 36.1415 88.9624 32.0037 87.1508C29.2113 85.9479 26.5238 84.5146 23.9692 82.8657C23.0515 82.3051 22.3944 81.7944 21.9302 81.4588L21.4088 81.0767L21.2374 80.9445C21.2374 80.9445 21.3017 80.9803 21.4195 81.0624L21.9516 81.4195C22.423 81.7337 23.0872 82.2444 24.0085 82.7979C26.5728 84.4263 29.2645 85.845 32.0573 87.0401C36.1908 88.8321 40.4891 90.217 44.8912 91.1752L45.8268 91.3859L46.7802 91.5645L48.7228 91.9215L50.7189 92.2036C51.0546 92.2465 51.3902 92.3036 51.7331 92.3393L52.7615 92.4358C55.5993 92.7371 58.4557 92.8254 61.3067 92.7C64.1588 92.5824 67.0002 92.2782 69.8126 91.7894C72.4343 91.3491 75.0305 90.7686 77.5901 90.0504C78.2078 89.8933 78.8006 89.6933 79.3934 89.5147C79.9861 89.3362 80.5718 89.1577 81.1396 88.9577L82.8215 88.3828L84.4355 87.7686L85.2211 87.4722L85.9817 87.1544L87.4601 86.533C88.4171 86.0974 89.3348 85.6832 90.199 85.2654C92.9332 83.9421 95.583 82.4514 98.1336 80.8017L98.7763 80.3946L99.3298 80.0197L100.198 79.4305L100.733 79.0734C100.855 78.9734 100.919 78.9448 100.919 78.9448Z" fill="#3A3A3A"/>
<path d="M85.5389 82.7586L92.7165 101.113H97.6229L98.6906 99.5134L99.9476 101.113H101.683L102.326 72.028L85.5389 82.7586Z" fill="#FF9769"/>
<path d="M40.4561 85.3439L46.5266 101.113H52.0972L53.2399 99.299L54.3398 101.127H55.7253C55.7253 101.127 56.3323 83.337 55.7253 82.8299C55.1182 82.3229 40.4561 85.3439 40.4561 85.3439Z" fill="#FF9769"/>
<path d="M111.317 50.0989C111.321 50.1334 111.321 50.1681 111.317 50.2025C111.317 50.2811 111.317 50.3846 111.292 50.5096C111.269 50.7929 111.233 51.1857 111.185 51.688C111.157 51.9451 111.128 52.2272 111.1 52.5379C111.071 52.8485 110.996 53.1806 110.939 53.5413C110.81 54.2555 110.707 55.0875 110.475 55.9767C110.368 56.423 110.26 56.8908 110.146 57.38C110.032 57.8692 109.857 58.362 109.707 58.8798C109.425 59.9261 108.993 61.0009 108.582 62.1401C106.642 67.0607 103.799 71.5756 100.201 75.4524C99.3549 76.3237 98.5657 77.1665 97.748 77.8771C97.3445 78.2342 96.9731 78.5913 96.5839 78.9198L95.459 79.8232C94.7448 80.416 94.0592 80.8695 93.4664 81.2945C93.1665 81.5016 92.8915 81.7016 92.6309 81.873L91.8988 82.3158L90.8847 82.9264L90.6204 83.0799C90.591 83.0982 90.5599 83.1138 90.5276 83.1263C90.5276 83.1263 90.5526 83.1013 90.6097 83.0621L90.8668 82.8942L91.8595 82.255L92.5737 81.798C92.8308 81.6266 93.1022 81.4194 93.3986 81.2088C93.9842 80.7767 94.677 80.3196 95.3698 79.7197L96.4839 78.8091C96.8695 78.4913 97.2373 78.1235 97.6373 77.7628C98.4479 77.0486 99.2263 76.2059 100.069 75.3346C103.633 71.4601 106.461 66.9682 108.414 62.0794C108.836 60.9438 109.264 59.8725 109.553 58.837C109.707 58.3192 109.878 57.8264 110 57.3443L110.357 55.9481C110.596 55.0625 110.714 54.2376 110.846 53.5234C110.907 53.1664 110.978 52.8343 111.021 52.5236C111.064 52.2129 111.092 51.9344 111.121 51.6773C111.185 51.1809 111.232 50.7881 111.267 50.506L111.31 50.2025C111.308 50.1678 111.311 50.133 111.317 50.0989Z" fill="white"/>
<g opacity="0.2">
<path opacity="0.2" d="M103.554 34.6154C101.922 30.5803 98.373 26.7594 94.27 25.1025C93.4883 24.7927 92.6441 24.6732 91.8071 24.7539C90.9702 24.8345 90.1644 25.1131 89.4563 25.5666C88.7482 26.02 88.1581 26.6354 87.7346 27.3619C87.3112 28.0883 87.0666 28.9051 87.021 29.7447C87.021 29.7733 87.021 29.7982 87.021 29.8232C86.8925 32.4086 87.9066 34.9189 89.1636 37.19C90.4205 39.4612 91.9025 41.6073 92.8702 44.0069C94.464 48.0115 94.5149 52.4651 93.013 56.5051C92.056 59.0476 90.467 61.7544 91.906 64.2897C92.8488 65.9502 94.7449 66.768 96.6482 66.5965C100.294 66.2645 102.187 62.9721 103.915 59.9832C105.304 57.5764 106.447 53.8341 106.515 51.0095C106.703 45.3966 105.694 39.8079 103.554 34.6154Z" fill="white"/>
</g>
<path d="M21.1018 43.3392C21.2092 43.8794 21.14 44.4398 20.9045 44.9377C20.669 45.4356 20.2796 45.8446 19.7938 46.1042C19.308 46.3638 18.7516 46.4603 18.2068 46.3795C17.662 46.2987 17.1576 46.0448 16.7681 45.6553C16.3786 45.2658 16.1247 44.7614 16.0439 44.2166C15.9631 43.6718 16.0596 43.1154 16.3192 42.6296C16.5788 42.1439 16.9878 41.7545 17.4857 41.5189C17.9836 41.2834 18.544 41.2142 19.0842 41.3216C19.5822 41.4211 20.0395 41.6658 20.3986 42.0248C20.7576 42.3839 21.0023 42.8412 21.1018 43.3392Z" fill="#3A3A3A"/>
<path d="M48.8907 43.3392C48.9979 43.8795 48.9285 44.4401 48.6927 44.938C48.4569 45.4359 48.0672 45.8448 47.5812 46.1041C47.0951 46.3635 46.5385 46.4597 45.9936 46.3785C45.4487 46.2972 44.9444 46.0428 44.5552 45.6529C44.166 45.263 43.9125 44.7583 43.8322 44.2132C43.7519 43.6682 43.8491 43.1118 44.1093 42.6262C44.3696 42.1406 44.7791 41.7516 45.2775 41.5167C45.7758 41.2818 46.3365 41.2134 46.8767 41.3216C47.3741 41.4213 47.831 41.6661 48.1894 42.0252C48.5478 42.3843 48.7919 42.8415 48.8907 43.3392Z" fill="#3A3A3A"/>
<path d="M102.712 22.3672C102.648 22.3068 102.588 22.2424 102.533 22.1744C102.412 22.028 102.254 21.8173 102.054 21.5995C101.855 21.3816 101.597 21.0388 101.294 20.6925C100.99 20.3461 100.655 19.939 100.255 19.5176C99.8548 19.0963 99.4334 18.6213 98.9514 18.1357C98.4693 17.65 97.9479 17.143 97.3944 16.6073C96.2732 15.5646 94.9983 14.4648 93.5985 13.3685C92.1987 12.2722 90.799 11.3367 89.4991 10.5118C88.8457 10.1118 88.2279 9.72617 87.628 9.39765C87.0281 9.06912 86.4781 8.75488 85.9604 8.48349C85.4426 8.2121 84.9748 7.98356 84.5641 7.7693C84.1535 7.55505 83.7892 7.39436 83.4929 7.26223L82.8144 6.94442C82.7347 6.90855 82.6572 6.86801 82.5823 6.82301C82.6671 6.84313 82.7497 6.87185 82.8287 6.90872L83.525 7.19439C83.8249 7.31937 84.1892 7.47649 84.5963 7.67646C85.0034 7.87643 85.4961 8.08712 86.0246 8.36208C86.5531 8.63704 87.1138 8.91557 87.7065 9.25481C88.2993 9.59404 88.9349 9.96899 89.5956 10.3582C90.9025 11.176 92.3059 12.1437 93.7164 13.215C95.1269 14.2862 96.3981 15.4218 97.5158 16.4788C98.0693 17.0144 98.5871 17.5215 99.0656 18.0214C99.5441 18.5213 99.9691 18.9856 100.355 19.4248C100.74 19.864 101.069 20.2639 101.376 20.6175C101.683 20.971 101.919 21.2852 102.115 21.5459L102.569 22.1422C102.622 22.2134 102.67 22.2886 102.712 22.3672Z" fill="white"/>
<path d="M75.7155 10.8296C75.6211 10.8076 75.5281 10.7802 75.437 10.7474L74.6514 10.476C74.3157 10.3546 73.8979 10.2082 73.4087 10.0654C72.9195 9.92255 72.3695 9.72972 71.7446 9.57974L70.7662 9.31907C70.427 9.23336 70.0699 9.16195 69.6949 9.07982C68.9593 8.90127 68.163 8.77272 67.3238 8.62631C63.6804 8.03757 59.9753 7.93071 56.304 8.3085C55.4612 8.40848 54.6578 8.49061 53.915 8.62631C53.5401 8.68701 53.1794 8.73701 52.8438 8.80485L51.8546 9.00482C51.2226 9.12266 50.6619 9.27979 50.162 9.39763C49.6621 9.51547 49.2407 9.63331 48.8979 9.73686L48.098 9.95826C48.0063 9.98957 47.9119 10.0123 47.8159 10.0261C47.9039 9.98537 47.9946 9.95078 48.0873 9.92255L48.8765 9.66545C49.2336 9.55118 49.6407 9.42262 50.137 9.30835C50.6334 9.19409 51.2083 9.01197 51.8261 8.88698L52.8152 8.67273C53.1723 8.60131 53.5294 8.55132 53.8865 8.48347C54.6328 8.34063 55.4363 8.25493 56.2826 8.14781C59.9698 7.75056 63.694 7.85748 67.3524 8.46562C68.1916 8.61917 68.9915 8.75486 69.7271 8.94055C70.0842 9.02625 70.4413 9.09767 70.7983 9.19051L71.7732 9.4619C72.3981 9.62259 72.948 9.81899 73.4372 9.97611C73.9265 10.1332 74.3371 10.2868 74.6728 10.4189L75.4477 10.7224C75.5398 10.7505 75.6294 10.7864 75.7155 10.8296Z" fill="white"/>
</svg>
